<svg width="82" height="21" viewBox="0 0 82 21" fill="none" xmlns="http://www.w3.org/2000/svg">
<path fill-rule="evenodd" clip-rule="evenodd" d="M13.9932 11.8156H11.3273V9.14974H8.66133V6.48374H13.9932V11.8156ZM5.99515 14.4816H8.66105V11.8157H5.99515V14.4816ZM2.68823 4.77344V16.1914C2.68823 17.0732 3.40317 17.7883 4.28515 17.7883H15.7031C16.5851 17.7883 17.3 17.0732 17.3 16.1914V4.77344C17.3 3.89145 16.5851 3.17651 15.7031 3.17651H4.28515C3.40317 3.17651 2.68823 3.89145 2.68823 4.77344Z" fill="white"/>
<path fill-rule="evenodd" clip-rule="evenodd" d="M28.6886 5.74634H26.0547V7.06336H27.3717V8.38025H28.6886V5.74634Z" fill="white"/>
<path fill-rule="evenodd" clip-rule="evenodd" d="M72.0325 8.37934H74.0281V6.38354H72.0325V8.37934Z" fill="white"/>
<path fill-rule="evenodd" clip-rule="evenodd" d="M29.3337 12.0945V8.37988H31.1443V12.2422C31.1443 12.6268 31.2626 12.9351 31.4994 13.1676C31.7364 13.3999 32.0381 13.5163 32.4047 13.5163C32.7621 13.5163 33.0573 13.3976 33.2898 13.1608C33.5222 12.924 33.6384 12.6176 33.6384 12.2422V8.37988H35.4488V12.0945C35.4488 13.0065 35.1604 13.7487 34.5839 14.3207C34.0072 14.893 33.2809 15.179 32.4047 15.179C31.5106 15.179 30.7755 14.8952 30.1988 14.3273C29.622 13.7596 29.3337 13.0155 29.3337 12.0945Z" fill="white"/>
<path fill-rule="evenodd" clip-rule="evenodd" d="M41.442 11.7059C41.442 11.1606 41.2814 10.7182 40.9593 10.378C40.6377 10.0387 40.2261 9.86873 39.7257 9.86873C39.243 9.86873 38.8427 10.0297 38.5255 10.3514C38.2079 10.6733 38.0494 11.1203 38.0494 11.6925C38.0494 12.2647 38.2079 12.714 38.5255 13.0399C38.8427 13.3667 39.243 13.5296 39.7257 13.5296C40.2172 13.5296 40.6264 13.3599 40.9527 13.0199C41.2791 12.6802 41.442 12.2423 41.442 11.7059ZM42.3606 9.2181C42.9729 9.87512 43.2793 10.6999 43.2793 11.6923C43.2793 12.6846 42.9729 13.5138 42.3606 14.1798C41.7484 14.8458 40.9817 15.1789 40.0609 15.1789C39.2294 15.1789 38.5678 14.9107 38.0761 14.3743V17.4316H36.2659V8.37973H37.9287V9.21148C38.3847 8.55877 39.0953 8.23242 40.0609 8.23242C40.9817 8.23242 41.7484 8.5608 42.3606 9.2181Z" fill="white"/>
<path fill-rule="evenodd" clip-rule="evenodd" d="M45.7591 11.0351H48.7764C48.7674 10.6329 48.6264 10.3088 48.3538 10.0629C48.0809 9.8172 47.7435 9.69433 47.3414 9.69433C46.957 9.69433 46.6216 9.81491 46.3356 10.0563C46.0494 10.2975 45.8572 10.6241 45.7591 11.0351ZM50.4121 12.3096H45.759C45.8662 12.7301 46.0827 13.0541 46.4093 13.2819C46.7354 13.5101 47.1402 13.6241 47.623 13.6241C48.2753 13.6241 48.8923 13.4005 49.4735 12.9533L50.2244 14.1873C49.4289 14.8489 48.5436 15.1795 47.5692 15.1795C46.55 15.1972 45.6852 14.8643 44.9744 14.1805C44.2636 13.4963 43.9172 12.6717 43.9353 11.7063C43.9172 10.7497 44.2523 9.92724 44.9409 9.23889C45.6291 8.5504 46.4516 8.21527 47.4085 8.2331C48.3204 8.2331 49.069 8.52799 49.6545 9.11818C50.2401 9.70823 50.5329 10.4413 50.5329 11.3176C50.5329 11.6391 50.4926 11.9703 50.4121 12.3096Z" fill="white"/>
<path fill-rule="evenodd" clip-rule="evenodd" d="M55.3984 8.37903V9.97502H54.9156C54.3612 9.97502 53.9253 10.1226 53.6083 10.4176C53.2906 10.7125 53.1322 11.1418 53.1322 11.7049V15.0172H51.3218V8.37903H52.9847V9.17027C53.4494 8.5894 54.0575 8.29883 54.8084 8.29883C55.032 8.29883 55.2287 8.32556 55.3984 8.37903Z" fill="white"/>
<path fill-rule="evenodd" clip-rule="evenodd" d="M60.5318 15.0182H62.3422V4.79956H60.5318V15.0182ZM59.6675 4.79976V6.42248H59.2315C58.8113 6.42248 58.5049 6.50295 58.3129 6.6639C58.1207 6.82458 58.0246 7.08842 58.0246 7.45501V8.38019H59.6675V9.90907H58.0246V15.0184H56.2141V7.29419C56.2141 6.47176 56.4377 5.85052 56.8849 5.43005C57.3316 5.01013 57.9619 4.79976 58.7755 4.79976H59.6675Z" fill="white"/>
<path fill-rule="evenodd" clip-rule="evenodd" d="M63.2246 12.0945V8.37988H65.0351V12.2422C65.0351 12.6268 65.1534 12.9351 65.3904 13.1676C65.6272 13.3999 65.929 13.5163 66.2957 13.5163C66.6531 13.5163 66.9482 13.3976 67.1805 13.1608C67.4131 12.924 67.5292 12.6176 67.5292 12.2422V8.37988H69.3396V12.0945C69.3396 13.0065 69.0514 13.7487 68.4746 14.3207C67.8981 14.893 67.1715 15.179 66.2957 15.179C65.4015 15.179 64.6663 14.8952 64.0898 14.3273C63.5129 13.7596 63.2246 13.0155 63.2246 12.0945Z" fill="white"/>
<path fill-rule="evenodd" clip-rule="evenodd" d="M70.2219 15.0181H72.0323V8.37988H70.2219V15.0181Z" fill="white"/>
<path fill-rule="evenodd" clip-rule="evenodd" d="M77.7497 13.0464C78.0666 12.7247 78.2257 12.2779 78.2257 11.7056C78.2257 11.1334 78.0647 10.6842 77.7429 10.3578C77.4209 10.0315 77.0231 9.86849 76.5495 9.86849C76.0574 9.86849 75.6486 10.0385 75.3222 10.3778C74.9959 10.7179 74.8329 11.1558 74.8329 11.6923C74.8329 12.2378 74.9939 12.68 75.3156 13.0197C75.6375 13.3597 76.0485 13.5294 76.5495 13.5294C77.0322 13.5294 77.432 13.3684 77.7497 13.0464ZM78.199 4.7998H80.0091V15.0184H78.3464V14.2003C77.8905 14.853 77.1796 15.1794 76.2143 15.1794C75.2842 15.1794 74.5154 14.8507 73.9078 14.1937C73.2995 13.5367 72.9958 12.7075 72.9958 11.7062C72.9958 10.7049 73.2995 9.87563 73.9078 9.2186C74.5154 8.56131 75.2842 8.23293 76.2143 8.23293C77.0543 8.23293 77.716 8.49676 78.199 9.02417V4.7998Z" fill="white"/>
<path fill-rule="evenodd" clip-rule="evenodd" d="M26.5021 9.93549L25.4963 9.49316C25.1028 9.31452 24.8325 9.15573 24.6851 9.01679C24.5376 8.87853 24.4638 8.69746 24.4638 8.47399C24.4638 8.44078 24.4701 8.41134 24.4734 8.37988H22.633C22.631 8.42471 22.6266 8.46832 22.6266 8.5141C22.6266 9.57809 23.3417 10.4274 24.7723 11.0621L25.7242 11.4911C26.1713 11.697 26.4706 11.869 26.6228 12.0074C26.7748 12.146 26.8509 12.3408 26.8509 12.5906C26.8509 12.895 26.7389 13.1338 26.5156 13.3083C26.292 13.4826 25.9835 13.5697 25.5903 13.5697C24.7676 13.5697 24.0434 13.1404 23.4177 12.2823L22.1707 13.2209C22.5193 13.8292 22.9908 14.3072 23.5854 14.6559C24.1798 15.0047 24.8482 15.179 25.5903 15.179C26.493 15.179 27.2351 14.9354 27.8163 14.4481C28.3973 13.9608 28.688 13.3195 28.688 12.5238C28.688 11.9336 28.5135 11.4399 28.165 11.042C27.8163 10.6442 27.2619 10.2755 26.5021 9.93549Z" fill="white"/>
</svg>
