<svg xmlns="http://www.w3.org/2000/svg" width="142" height="100" viewBox="0 0 142 100" fill="none">
  <path d="M93 66L153 66" stroke="url(#paint0_linear_64_4098)" stroke-width="2"/>
  <path d="M93 38L153 38" stroke="url(#paint1_linear_64_4098)" stroke-width="2"/>
  <g filter="url(#filter0_f_64_4098)">
    <rect x="95" y="95" width="90" height="90" rx="45" transform="rotate(-180 95 95)" stroke="#EA00E0" stroke-width="2"/>
  </g>
  <g filter="url(#filter1_f_64_4098)">
    <rect x="95" y="95" width="90" height="90" rx="45" transform="rotate(-180 95 95)" stroke="#EA00E0"/>
  </g>
  <rect x="95" y="95" width="90" height="90" rx="45" transform="rotate(-180 95 95)" stroke="white" stroke-width="0.773463"/>
  <g filter="url(#filter2_f_64_4098)">
    <path d="M71.8333 51.2088C72.566 53.3923 72.9629 55.73 72.9629 58.1603C72.9629 70.2219 63.1851 79.9998 51.1234 79.9998C39.0618 79.9998 29.2839 70.2219 29.2839 58.1603C29.2839 46.0987 39.0618 36.3208 51.1234 36.3208C54.1005 36.3208 56.9384 36.9165 59.5245 37.9951" stroke="#EA00E0" stroke-width="0.753086"/>
    <path d="M68.0678 51.7593C68.7339 53.6437 69.1975 56.048 69.1975 58.1605C69.1975 68.1425 61.1054 76.2346 51.1234 76.2346C41.1414 76.2346 33.0493 68.1425 33.0493 58.1605C33.0493 48.1785 41.1414 40.0864 51.1234 40.0864C53.811 40.0864 56.7382 40.9169 59.0308 41.9691" stroke="#EA00E0" stroke-width="0.753086"/>
    <circle cx="69.1975" cy="41.5925" r="10.1667" stroke="#EA00E0" stroke-width="0.753086"/>
    <path d="M61.6667 58.1606L62.4198 58.1606" stroke="#EA00E0" stroke-width="0.753086" stroke-linecap="round"/>
    <path d="M40.5803 58.1606H41.3334" stroke="#EA00E0" stroke-width="0.753086" stroke-linecap="round"/>
    <path d="M55.6158 60.6086C55.6158 61.6464 55.2805 62.488 54.6097 63.1334C53.939 63.7662 53.0214 64.1206 51.8571 64.1965V65.345C51.8571 65.6124 51.6404 65.8291 51.373 65.8291C51.1057 65.8291 50.8889 65.6124 50.8889 65.345V64.1965C49.5601 64.1079 48.5223 63.6776 47.7756 62.9056C47.1718 62.2706 46.8164 61.473 46.7092 60.5126C46.6697 60.1583 46.9635 59.8683 47.32 59.8683C47.6765 59.8683 47.9581 60.1593 48.015 60.5112C48.1236 61.1831 48.4108 61.7471 48.8767 62.2032C49.4841 62.7854 50.3131 63.0765 51.3635 63.0765C52.3 63.0765 53.0277 62.8677 53.5466 62.45C54.0782 62.0197 54.3439 61.4186 54.3439 60.6466C54.3439 59.4443 53.6289 58.6533 52.1988 58.2736L49.9397 57.7421C48.0414 57.2612 47.0922 56.1222 47.0922 54.325C47.0922 53.3885 47.4339 52.5849 48.1173 51.9141C48.8007 51.2307 49.7246 50.8637 50.8889 50.8131V49.6076C50.8889 49.3403 51.1057 49.1235 51.373 49.1235C51.6404 49.1235 51.8571 49.3403 51.8571 49.6076V50.851C52.9328 50.9776 53.7808 51.3826 54.4009 52.066C54.8898 52.6048 55.19 53.2656 55.3013 54.0483C55.3523 54.4072 55.054 54.7047 54.6915 54.7047C54.3394 54.7047 54.0592 54.4224 53.9932 54.0765C53.8831 53.4997 53.6394 53.0321 53.2619 52.6735C52.7556 52.1799 52.0469 51.9331 51.1357 51.9331C50.2498 51.9331 49.5664 52.1546 49.0855 52.5975C48.6172 53.0278 48.3831 53.5784 48.3831 54.2491C48.3831 55.5147 49.1614 56.331 50.7181 56.698L53.0531 57.2865C54.7616 57.7294 55.6158 58.8368 55.6158 60.6086Z" fill="#EA00E0"/>
    <path d="M69.1975 38.5801L69.1975 42.3467L71.5945 43.4431" stroke="#EA00E0" stroke-width="0.753086" stroke-linecap="round"/>
    <path d="M25.5185 58.5371V35.1914C25.5185 34.7755 25.1814 34.4383 24.7654 34.4383H21.7531C21.3372 34.4383 21 34.1012 21 33.6852V31.4628C21 31.2054 21.1315 30.9657 21.3488 30.8275L28.8885 26.0295C29.1306 25.8754 29.4392 25.8723 29.6844 26.0216L37.5829 30.8294C37.8074 30.966 37.9444 31.2098 37.9444 31.4727V33.6852C37.9444 34.1012 37.6073 34.4383 37.1914 34.4383H34.5556C34.1396 34.4383 33.8025 34.7755 33.8025 35.1914V40.0865" stroke="#EA00E0" stroke-width="0.753086" stroke-linecap="round"/>
    <path d="M46.6049 33.3086V28.4136C46.6049 27.9977 46.2678 27.6605 45.8519 27.6605H42.8395C42.4236 27.6605 42.0864 27.3233 42.0864 26.9074V24.685C42.0864 24.4275 42.218 24.1879 42.4352 24.0497L49.9749 19.2517C50.217 19.0976 50.5257 19.0945 50.7708 19.2437L58.6693 24.0515C58.8939 24.1882 59.0309 24.432 59.0309 24.6948V26.9074C59.0309 27.3233 58.6937 27.6605 58.2778 27.6605H55.642C55.2261 27.6605 54.8889 27.9977 54.8889 28.4136V33.3086" stroke="#EA00E0" stroke-width="0.753086" stroke-linecap="round"/>
    <path d="M25.5186 61.5493V63.432" stroke="#EA00E0" stroke-width="0.753086" stroke-linecap="round"/>
    <path d="M25.5186 66.4443V68.3271" stroke="#EA00E0" stroke-width="0.753086" stroke-linecap="round"/>
  </g>
  <g filter="url(#filter3_f_64_4098)">
    <path d="M71.8333 51.2088C72.566 53.3923 72.9629 55.73 72.9629 58.1603C72.9629 70.2219 63.1851 79.9998 51.1234 79.9998C39.0618 79.9998 29.2839 70.2219 29.2839 58.1603C29.2839 46.0987 39.0618 36.3208 51.1234 36.3208C54.1005 36.3208 56.9384 36.9165 59.5245 37.9951" stroke="#EA00E0" stroke-width="0.753086"/>
    <path d="M68.0678 51.7593C68.7339 53.6437 69.1975 56.048 69.1975 58.1605C69.1975 68.1425 61.1054 76.2346 51.1234 76.2346C41.1414 76.2346 33.0493 68.1425 33.0493 58.1605C33.0493 48.1785 41.1414 40.0864 51.1234 40.0864C53.811 40.0864 56.7382 40.9169 59.0308 41.9691" stroke="#EA00E0" stroke-width="0.753086"/>
    <circle cx="69.1975" cy="41.5925" r="10.1667" stroke="#EA00E0" stroke-width="0.753086"/>
    <path d="M61.6667 58.1606L62.4198 58.1606" stroke="#EA00E0" stroke-width="0.753086" stroke-linecap="round"/>
    <path d="M40.5803 58.1606H41.3334" stroke="#EA00E0" stroke-width="0.753086" stroke-linecap="round"/>
    <path d="M55.6158 60.6086C55.6158 61.6464 55.2805 62.488 54.6097 63.1334C53.939 63.7662 53.0214 64.1206 51.8571 64.1965V65.345C51.8571 65.6124 51.6404 65.8291 51.373 65.8291C51.1057 65.8291 50.8889 65.6124 50.8889 65.345V64.1965C49.5601 64.1079 48.5223 63.6776 47.7756 62.9056C47.1718 62.2706 46.8164 61.473 46.7092 60.5126C46.6697 60.1583 46.9635 59.8683 47.32 59.8683C47.6765 59.8683 47.9581 60.1593 48.015 60.5112C48.1236 61.1831 48.4108 61.7471 48.8767 62.2032C49.4841 62.7854 50.3131 63.0765 51.3635 63.0765C52.3 63.0765 53.0277 62.8677 53.5466 62.45C54.0782 62.0197 54.3439 61.4186 54.3439 60.6466C54.3439 59.4443 53.6289 58.6533 52.1988 58.2736L49.9397 57.7421C48.0414 57.2612 47.0922 56.1222 47.0922 54.325C47.0922 53.3885 47.4339 52.5849 48.1173 51.9141C48.8007 51.2307 49.7246 50.8637 50.8889 50.8131V49.6076C50.8889 49.3403 51.1057 49.1235 51.373 49.1235C51.6404 49.1235 51.8571 49.3403 51.8571 49.6076V50.851C52.9328 50.9776 53.7808 51.3826 54.4009 52.066C54.8898 52.6048 55.19 53.2656 55.3013 54.0483C55.3523 54.4072 55.054 54.7047 54.6915 54.7047C54.3394 54.7047 54.0592 54.4224 53.9932 54.0765C53.8831 53.4997 53.6394 53.0321 53.2619 52.6735C52.7556 52.1799 52.0469 51.9331 51.1357 51.9331C50.2498 51.9331 49.5664 52.1546 49.0855 52.5975C48.6172 53.0278 48.3831 53.5784 48.3831 54.2491C48.3831 55.5147 49.1614 56.331 50.7181 56.698L53.0531 57.2865C54.7616 57.7294 55.6158 58.8368 55.6158 60.6086Z" fill="#EA00E0"/>
    <path d="M69.1975 38.5801L69.1975 42.3467L71.5945 43.4431" stroke="#EA00E0" stroke-width="0.753086" stroke-linecap="round"/>
    <path d="M25.5185 58.5371V35.1914C25.5185 34.7755 25.1814 34.4383 24.7654 34.4383H21.7531C21.3372 34.4383 21 34.1012 21 33.6852V31.4628C21 31.2054 21.1315 30.9657 21.3488 30.8275L28.8885 26.0295C29.1306 25.8754 29.4392 25.8723 29.6844 26.0216L37.5829 30.8294C37.8074 30.966 37.9444 31.2098 37.9444 31.4727V33.6852C37.9444 34.1012 37.6073 34.4383 37.1914 34.4383H34.5556C34.1396 34.4383 33.8025 34.7755 33.8025 35.1914V40.0865" stroke="#EA00E0" stroke-width="0.753086" stroke-linecap="round"/>
    <path d="M46.6049 33.3086V28.4136C46.6049 27.9977 46.2678 27.6605 45.8519 27.6605H42.8395C42.4236 27.6605 42.0864 27.3233 42.0864 26.9074V24.685C42.0864 24.4275 42.218 24.1879 42.4352 24.0497L49.9749 19.2517C50.217 19.0976 50.5257 19.0945 50.7708 19.2437L58.6693 24.0515C58.8939 24.1882 59.0309 24.432 59.0309 24.6948V26.9074C59.0309 27.3233 58.6937 27.6605 58.2778 27.6605H55.642C55.2261 27.6605 54.8889 27.9977 54.8889 28.4136V33.3086" stroke="#EA00E0" stroke-width="0.753086" stroke-linecap="round"/>
    <path d="M25.5186 61.5493V63.432" stroke="#EA00E0" stroke-width="0.753086" stroke-linecap="round"/>
    <path d="M25.5186 66.4443V68.3271" stroke="#EA00E0" stroke-width="0.753086" stroke-linecap="round"/>
  </g>
  <path d="M71.8333 51.2088C72.566 53.3923 72.9629 55.73 72.9629 58.1603C72.9629 70.2219 63.1851 79.9998 51.1234 79.9998C39.0618 79.9998 29.2839 70.2219 29.2839 58.1603C29.2839 46.0987 39.0618 36.3208 51.1234 36.3208C54.1005 36.3208 56.9384 36.9165 59.5245 37.9951" stroke="white" stroke-width="0.753086"/>
  <path d="M68.0678 51.7593C68.7339 53.6437 69.1975 56.048 69.1975 58.1605C69.1975 68.1425 61.1054 76.2346 51.1234 76.2346C41.1414 76.2346 33.0493 68.1425 33.0493 58.1605C33.0493 48.1785 41.1414 40.0864 51.1234 40.0864C53.811 40.0864 56.7382 40.9169 59.0308 41.9691" stroke="white" stroke-width="0.753086"/>
  <circle cx="69.1975" cy="41.5925" r="10.1667" stroke="white" stroke-width="0.753086"/>
  <path d="M61.6667 58.1606L62.4198 58.1606" stroke="white" stroke-width="0.753086" stroke-linecap="round"/>
  <path d="M40.5803 58.1606H41.3334" stroke="white" stroke-width="0.753086" stroke-linecap="round"/>
  <path d="M55.6158 60.6086C55.6158 61.6464 55.2805 62.488 54.6097 63.1334C53.939 63.7662 53.0214 64.1206 51.8571 64.1965V65.345C51.8571 65.6124 51.6404 65.8291 51.373 65.8291C51.1057 65.8291 50.8889 65.6124 50.8889 65.345V64.1965C49.5601 64.1079 48.5223 63.6776 47.7756 62.9056C47.1718 62.2706 46.8164 61.473 46.7092 60.5126C46.6697 60.1583 46.9635 59.8683 47.32 59.8683C47.6765 59.8683 47.9581 60.1593 48.015 60.5112C48.1236 61.1831 48.4108 61.7471 48.8767 62.2032C49.4841 62.7854 50.3131 63.0765 51.3635 63.0765C52.3 63.0765 53.0277 62.8677 53.5466 62.45C54.0782 62.0197 54.3439 61.4186 54.3439 60.6466C54.3439 59.4443 53.6289 58.6533 52.1988 58.2736L49.9397 57.7421C48.0414 57.2612 47.0922 56.1222 47.0922 54.325C47.0922 53.3885 47.4339 52.5849 48.1173 51.9141C48.8007 51.2307 49.7246 50.8637 50.8889 50.8131V49.6076C50.8889 49.3403 51.1057 49.1235 51.373 49.1235C51.6404 49.1235 51.8571 49.3403 51.8571 49.6076V50.851C52.9328 50.9776 53.7808 51.3826 54.4009 52.066C54.8898 52.6048 55.19 53.2656 55.3013 54.0483C55.3523 54.4072 55.054 54.7047 54.6915 54.7047C54.3394 54.7047 54.0592 54.4224 53.9932 54.0765C53.8831 53.4997 53.6394 53.0321 53.2619 52.6735C52.7556 52.1799 52.0469 51.9331 51.1357 51.9331C50.2498 51.9331 49.5664 52.1546 49.0855 52.5975C48.6172 53.0278 48.3831 53.5784 48.3831 54.2491C48.3831 55.5147 49.1614 56.331 50.7181 56.698L53.0531 57.2865C54.7616 57.7294 55.6158 58.8368 55.6158 60.6086Z" fill="white"/>
  <path d="M69.1975 38.5801L69.1975 42.3467L71.5945 43.4431" stroke="white" stroke-width="0.753086" stroke-linecap="round"/>
  <path d="M25.5185 58.5371V35.1914C25.5185 34.7755 25.1814 34.4383 24.7654 34.4383H21.7531C21.3372 34.4383 21 34.1012 21 33.6852V31.4628C21 31.2054 21.1315 30.9657 21.3488 30.8275L28.8885 26.0295C29.1306 25.8754 29.4392 25.8723 29.6844 26.0216L37.5829 30.8294C37.8074 30.966 37.9444 31.2098 37.9444 31.4727V33.6852C37.9444 34.1012 37.6073 34.4383 37.1914 34.4383H34.5556C34.1396 34.4383 33.8025 34.7755 33.8025 35.1914V40.0865" stroke="white" stroke-width="0.753086" stroke-linecap="round"/>
  <path d="M46.6049 33.3086V28.4136C46.6049 27.9977 46.2678 27.6605 45.8519 27.6605H42.8395C42.4236 27.6605 42.0864 27.3233 42.0864 26.9074V24.685C42.0864 24.4275 42.218 24.1879 42.4352 24.0497L49.9749 19.2517C50.217 19.0976 50.5257 19.0945 50.7708 19.2437L58.6693 24.0515C58.8939 24.1882 59.0309 24.432 59.0309 24.6948V26.9074C59.0309 27.3233 58.6937 27.6605 58.2778 27.6605H55.642C55.2261 27.6605 54.8889 27.9977 54.8889 28.4136V33.3086" stroke="white" stroke-width="0.753086" stroke-linecap="round"/>
  <path d="M25.5186 61.5493V63.432" stroke="white" stroke-width="0.753086" stroke-linecap="round"/>
  <path d="M25.5186 66.4443V68.3271" stroke="white" stroke-width="0.753086" stroke-linecap="round"/>
  <defs>
    <filter id="filter0_f_64_4098" x="0.906149" y="0.906149" width="98.1877" height="98.1877" filterUnits="userSpaceOnUse" color-interpolation-filters="sRGB">
      <feFlood flood-opacity="0" result="BackgroundImageFix"/>
      <feBlend mode="normal" in="SourceGraphic" in2="BackgroundImageFix" result="shape"/>
      <feGaussianBlur stdDeviation="1.54693" result="effect1_foregroundBlur_64_4098"/>
    </filter>
    <filter id="filter1_f_64_4098" x="1.40615" y="1.40615" width="97.1877" height="97.1877" filterUnits="userSpaceOnUse" color-interpolation-filters="sRGB">
      <feFlood flood-opacity="0" result="BackgroundImageFix"/>
      <feBlend mode="normal" in="SourceGraphic" in2="BackgroundImageFix" result="shape"/>
      <feGaussianBlur stdDeviation="1.54693" result="effect1_foregroundBlur_64_4098"/>
    </filter>
    <filter id="filter2_f_64_4098" x="18.2936" y="16.4274" width="63.7771" height="66.279" filterUnits="userSpaceOnUse" color-interpolation-filters="sRGB">
      <feFlood flood-opacity="0" result="BackgroundImageFix"/>
      <feBlend mode="normal" in="SourceGraphic" in2="BackgroundImageFix" result="shape"/>
      <feGaussianBlur stdDeviation="1.16497" result="effect1_foregroundBlur_64_4098"/>
    </filter>
    <filter id="filter3_f_64_4098" x="18.2936" y="16.4274" width="63.7771" height="66.279" filterUnits="userSpaceOnUse" color-interpolation-filters="sRGB">
      <feFlood flood-opacity="0" result="BackgroundImageFix"/>
      <feBlend mode="normal" in="SourceGraphic" in2="BackgroundImageFix" result="shape"/>
      <feGaussianBlur stdDeviation="1.16497" result="effect1_foregroundBlur_64_4098"/>
    </filter>
    <linearGradient id="paint0_linear_64_4098" x1="153" y1="66.5" x2="93" y2="66.5" gradientUnits="userSpaceOnUse">
      <stop offset="0.111093" stop-color="#1F062B"/>
      <stop offset="1" stop-color="#733E9C"/>
    </linearGradient>
    <linearGradient id="paint1_linear_64_4098" x1="153" y1="38.5" x2="93" y2="38.5" gradientUnits="userSpaceOnUse">
      <stop offset="0.111093" stop-color="#1F062B"/>
      <stop offset="1" stop-color="#733E9C"/>
    </linearGradient>
  </defs>
</svg>